PathFileType	4	(X/Y/Z)	C:/Users/beibeiliu/ov580/test_trc/User1\sequence.7_training_dense_right.trc
DataRate	CameraRate	NumFrames	NumMarkers	Units	OrigDataRate	OrigDataStartFrame	OrigNumFrames
120	120	16	19	mm	120	1	295
Frame#	Time	ThumbCMC			ThumbMCP			ThumbIP			ThumbTip			IndexMCP			IndexPIP			IndexTip			MiddleMCP			MiddlePIP			MiddleTip			RingMCP			RingPIP			RingTip			PinkyMCP			PinkyPIP			PinkyTip			BackHand1			BackHand2			BackHand3	
		X0	Y0	Z0	X1	Y1	Z1	X2	Y2	Z2	X3	Y3	Z3	X4	Y4	Z4	X5	Y5	Z5	X6	Y6	Z6	X7	Y7	Z7	X8	Y8	Z8	X9	Y9	Z9	X10	Y10	Z10	X11	Y11	Z11	X12	Y12	Z12	X13	Y13	Z13	X14	Y14	Z14	X15	Y15	Z15	X16	Y16	Z16	X17	Y17	Z17	X18	Y18	Z18	
0	0	114.436	94.8569	28.4833	85.9871	80.7202	21.3892	65.1759	71.0828	6.51314	46.9185	64.4727	0.228888	124.095	81.7167	-56.5292	121.696	74.9518	-84.4773	119.173	72.2777	-105.325	157.438	87.2328	-64.0254	155.496	83.2871	-91.9278	162.427	78.1065	-121.649	180.041	82.8524	-56.0185	185.844	81.665	-83.3149	194.204	78.2286	-108.318	203.764	69.5276	-34.5039	217.391	65.519	-47.8427	231.116	68.783	-62.6177	175.423	98.8162	-7.51368	176.57	115.167	23.8801	142.052	109.617	7.99249	
1	0.00833333	111.78	93.1902	24.2603	90.3907	79.2874	21.1423	66.4306	69.8114	4.54503	46.3727	64.4374	3.71254	124.268	80.6649	-56.2687	119.572	76.3443	-83.8448	122.709	71.7667	-109.277	153.678	86.5228	-63.333	154.927	82.4614	-96.0631	161.629	78.1645	-123.766	178.162	82.6967	-58.6541	189.722	81.2175	-79.6939	192.749	77.9992	-108.141	203.019	69.0636	-34.1489	218.448	65.2614	-48.9092	230.094	67.7315	-68.2779	175.276	97.8585	-7.30463	176.941	113.591	23.6688	141.39	109.179	4.67465	
2	0.0166667	111.667	94.6854	28.9772	89.8156	77.9812	18.5153	65.7435	70.0371	5.51208	48.1882	63.2423	0.132227	124.764	80.3226	-57.0621	119.18	76.1006	-80.3241	123.491	71.7575	-106.343	154.184	86.2076	-68.6781	154.668	82.6372	-95.9088	162.145	77.7609	-125.467	181.015	82.5866	-57.0849	185.83	81.04	-80.6148	193.502	77.0035	-107.113	204.031	69.8564	-36.0415	217.029	64.5781	-46.9453	228.182	68.5018	-64.7281	176.247	97.7264	-8.80394	179.867	113.599	20.2874	143.537	109.772	5.48689	
3	0.025	110.596	94.3311	25.9563	88.7619	80.0263	21.3401	66.0876	69.8195	3.69929	46.1245	63.1289	0.505933	123.188	80.9645	-55.4408	119.5	75.459	-84.7684	124.83	71.9758	-108.18	158.601	86.7012	-66.4252	159.303	82.5995	-96.8105	164.921	77.176	-123.565	180.082	83.6841	-59.1282	188.193	81.9303	-84.5432	192.624	76.9993	-108.163	203.809	69.9903	-35.107	215.166	64.873	-46.2007	231.91	68.8277	-66.9946	173.974	99.5071	-9.50616	179.048	112.466	23.366	140.231	108.004	2.29814	
4	0.0333333	110.052	94.5365	25.1198	90.173	79.3442	20.3978	67.1023	70.4849	5.53648	47.1344	62.3052	-0.356338	125.32	80.4823	-58.9177	120.271	76.1754	-81.0936	125.866	71.1996	-106.697	154.381	86.9185	-62.9433	157.688	81.8215	-96.2116	162.064	77.997	-121.528	179.51	82.4238	-53.7822	185.865	81.4104	-84.9865	193.323	78.4582	-108.99	204.636	69.7969	-31.5145	218.557	65.2711	-49.6526	232.462	67.6384	-67.0608	175.418	99.3374	-5.58746	182.488	114.085	23.2184	146.428	108.791	6.33472	
5	0.0416667	110.896	92.9594	24.5353	91.9906	77.6319	19.42	71.0581	69.1448	8.51759	50.4295	62.01	1.88428	122.982	79.5426	-56.8042	124.965	74.6311	-83.6123	120.411	71.2571	-109.104	157.278	86.1657	-62.8088	160.249	82.3427	-92.2328	161.78	77.4575	-119.535	179.43	82.3001	-57.1563	188.905	81.6694	-80.8642	191.189	77.0985	-104.914	207.643	68.78	-33.7233	215.427	65.3027	-47.3017	234.365	69.1312	-66.7592	179.921	97.2905	-7.73711	179.914	111.748	21.2686	146.194	107.179	2.89451	
6	0.05	113.423	92.5468	25.2328	89.2554	79.7973	21.3608	66.0328	70.5557	7.31982	48.0681	63.1678	4.13056	124.494	79.5173	-57.2237	120.018	74.8363	-83.6376	126.247	70.5573	-108.193	154.643	86.7334	-64.2675	157.863	82.1592	-92.4638	162.66	77.4597	-121.501	183.717	82.9057	-56.4473	190.31	81.3894	-80.824	195.153	77.611	-104.266	204.215	69.6931	-32.5139	220.37	64.3182	-46.9692	234.89	68.1437	-67.1587	176.386	99.63	-5.41732	177.655	112.551	23.5467	143.964	107.068	3.81455	
7	0.0583333	113.015	93.8939	29.3431	89.7138	79.4235	20.6966	67.9298	70.3305	7.39582	47.6069	63.6219	1.64912	122.802	80.2781	-57.7262	123.61	73.8185	-85.5299	124.341	71.3725	-110.577	157.202	85.6541	-66.0083	158.583	81.5919	-94.0591	166.354	77.718	-125.242	184.766	82.0642	-57.0152	191.928	81.3037	-81.9366	192.765	78.3479	-104.652	204.406	70.5204	-31.3155	216.296	65.4134	-45.6807	234.027	69.8722	-64.0736	175.853	99.5916	-9.94092	178.535	114.002	24.9735	141.896	108.863	6.4592	
8	0.0666667	115.086	92.0346	24.0777	90.2609	79.0589	21.0363	70.8793	70.0275	8.08341	49.4198	62.9375	3.42027	125.127	79.6677	-59.0505	122.565	75.5991	-84.0393	126.161	71.6501	-106.225	158.106	86.3852	-64.9446	160.095	81.3981	-96.3359	163.456	77.6976	-119.576	181.052	83.5032	-53.8941	188.305	81.5523	-79.8903	195.256	79.2292	-107.459	206.804	70.7502	-32.5118	217.465	65.2465	-48.6245	234.071	68.3248	-61.4967	180.459	100.11	-8.64238	182.025	112.767	21.8073	145.857	108.258	7.14021	
9	0.075	114.097	95.0122	28.5519	90.2877	78.7004	20.4847	70.2928	70.8701	8.08087	49.033	63.9763	1.38443	127.745	81.2193	-59.2456	121.725	76.1781	-80.6547	125.395	71.8089	-109.42	155.389	87.8391	-67.9336	159.735	82.7757	-96.2721	162.54	79.7832	-120.71	182.557	84.4283	-54.0791	187.657	82.7076	-80.3775	193.705	79.6632	-106.459	209.385	70.9595	-31.9219	218.876	66.3391	-47.6893	231.62	70.7237	-65.7732	176.088	98.8381	-5.62818	182.423	111.986	20.9414	148.316	110.602	7.16684	
10	0.0833333	116.886	93.8269	24.6835	88.6636	79.7264	18.3023	67.6848	70.5084	7.21563	49.5325	62.2749	-0.963893	126.603	82.4973	-55.8922	122.349	76.8872	-85.0691	129.319	74.1049	-107.272	158.823	87.5434	-67.1109	162.897	84.4618	-92.684	165.83	79.7957	-121.446	185.6	84.8635	-57.7258	190.31	83.9578	-81.2752	195.459	80.3585	-106.53	210.703	70.288	-31.9794	219.503	66.4084	-48.1084	235.396	70.9468	-68.2051	177.349	99.8399	-4.34529	181.982	114.571	24.3143	148.111	108.332	7.99447	
11	0.0916667	117.025	94.8861	28.6099	95.2122	79.3163	17.3327	68.7295	70.6238	2.2167	48.1254	64.23	-2.89231	126.173	83.7972	-58.9076	126.276	79.9473	-85.3548	128.365	76.935	-110.802	157.51	89.7191	-64.5264	163.088	86.6756	-95.0692	164.566	82.6827	-122.954	185.917	86.6035	-57.5553	192.577	84.7479	-81.5746	196.005	80.7416	-109.421	208.984	71.5427	-37.8215	223.252	67.5842	-50.6424	237.224	70.4067	-66.7888	180.714	99.6893	-9.64428	182.492	113.456	23.0208	145.134	108.329	3.87911	
12	0.1	115.493	96.8184	27.1926	94.7319	81.2214	16.4358	73.0778	73.2163	4.88717	52.643	67.56	-1.79173	126.381	88.8785	-61.7023	127.571	84.6276	-85.9191	126.42	81.804	-107.431	158.84	93.6877	-69.9483	166.325	88.9945	-97.948	169.045	84.9283	-123.972	185.763	88.7555	-59.5973	195.299	87.2028	-85.4585	195.337	84.2809	-110.169	211.794	73.728	-37.0151	221.304	69.3917	-51.5954	235.124	71.7962	-70.0816	180.123	103.594	-8.97001	183.526	113.199	22.5266	147.077	113.174	6.82149	
13	0.108333	120.06	96.4585	23.702	94.5241	81.9374	15.6836	74.5824	75.2185	1.45936	54.322	69.5151	-1.76465	131.253	91.4842	-59.1507	129.619	89.2958	-85.9828	128.527	88.0758	-113.276	164.377	96.2098	-65.4017	166.321	93.0249	-94.3245	170.613	88.7346	-126.658	189.488	90.8111	-60.4231	189.875	89.8939	-84.5659	197.503	86.4108	-106.95	212.028	75.3289	-33.9235	224.084	69.6948	-52.4694	232.903	73.2849	-69.4005	181.011	104.359	-5.55802	185.058	113.967	21.7594	147.75	114.715	7.36813	
14	0.116667	118.64	97.6031	24.0943	92.9578	84.6043	18.2861	73.9088	77.5975	1.67188	50.6822	72.2786	-7.08726	128.915	96.5231	-62.5332	129.748	93.4239	-88.3648	127.96	93.009	-110.69	160.468	98.3891	-67.7575	166.992	95.4378	-93.8775	169.383	91.0943	-126	190.229	91.8164	-59.1394	194.088	91.5643	-87.8391	197.35	87.8179	-112.451	210.458	75.4324	-35.5761	224.093	71.2805	-48.7203	236.88	73.9158	-71.6781	185.113	104.054	-6.74174	184.367	114.828	24.2874	149.564	113.194	4.63876	
15	0.125	117.677	101.163	23.6175	95.0133	86.7692	15.4977	73.4775	81.5492	1.46681	54.4322	75.794	-6.45519	129.193	101.656	-61.4211	127.38	99.5721	-88.2085	127.544	100.169	-110.986	162.875	101.353	-69.8963	163.718	98.7511	-98.737	167.709	94.4085	-125.107	186.259	94.0121	-61.2717	196.949	92.3712	-83.4526	200.128	87.9899	-111.06	211.039	75.3048	-36.7966	222.721	69.7442	-50.7712	235.314	72.102	-71.6953	187.613	105.84	-5.76925	189.915	114.341	22.4305	151.888	115.614	8.57627	
